<svg width="214" height="214" viewBox="0 0 214 214" fill="none" xmlns="http://www.w3.org/2000/svg">
<path d="M106.665 213.33C165.574 213.33 213.33 165.574 213.33 106.665C213.33 47.7555 165.574 0 106.665 0C47.7556 0 0 47.7555 0 106.665C0 165.574 47.7556 213.33 106.665 213.33Z" fill="#A2E17B"/>
<path d="M48.031 130.823C48.031 130.823 47.489 148.435 74.585 152.5C74.585 152.5 94.365 177.157 119.564 151.687C119.564 151.687 127.422 165.777 145.305 158.461C145.305 158.461 154.518 173.093 178.091 161.171C178.091 161.171 169.962 158.732 171.046 151.687C172.13 144.642 168.336 138.41 165.627 134.888C165.627 134.888 173.485 132.991 174.298 119.985C174.298 119.985 206 99.934 174.84 76.632C174.84 76.632 171.318 51.162 141.241 55.226C141.241 55.226 126.338 35.717 101.41 51.974C101.41 51.974 77.566 41.678 62.934 61.729C62.934 61.729 37.227 66.662 41.41 92.511L48.031 130.823Z" fill="white"/>
<path d="M48.7545 130.207C58.7704 126.146 63.5982 114.735 59.5375 104.719C55.4769 94.7027 44.0655 89.875 34.0496 93.9356C24.0336 97.9962 19.2058 109.408 23.2665 119.424C27.3271 129.44 38.7385 134.267 48.7545 130.207Z" fill="#A2E17B"/>
<path d="M99.59 129.887C110.398 129.887 119.16 121.125 119.16 110.317C119.16 99.5088 110.398 90.747 99.59 90.747C88.7818 90.747 80.02 99.5088 80.02 110.317C80.02 121.125 88.7818 129.887 99.59 129.887Z" fill="#A2E17B"/>
<path d="M177.55 121.976C199.365 112.678 198.032 80.648 175.526 73.215C173.677 57.528 156.8 46.845 141.669 51.929C132.747 37.769 111.398 36.296 100.532 48.725C86.85 42.02 68.606 45.742 61.275 59.502C46.227 59.483 35.456 75.119 37.25 89.576C9.86701 98.039 17.238 138.077 46.108 135.935C48.115 147.73 62.487 157.758 74.183 156.534C77.751 160.835 82.625 163.905 88.294 165.419C90.735 166.071 93.354 166.422 96.038 166.422C104.002 166.422 112.528 163.333 118.594 155.873C124.712 162.708 135.187 165.327 143.845 162.074C150.062 167.833 156.778 169.819 162.788 169.819C170.13 169.819 176.418 166.854 179.451 164.186C180.269 163.466 180.691 162.396 180.583 161.311C180.475 160.226 179.852 159.26 178.908 158.715C174.629 156.244 174.549 153.988 174.39 149.494C174.258 145.765 174.099 141.251 171.064 136.222C175.008 132.729 177.511 127.639 177.55 121.976ZM26.795 112.367C26.795 103.038 34.385 95.447 43.715 95.447C66.131 96.298 66.124 128.439 43.715 129.286C34.385 129.287 26.795 121.697 26.795 112.367ZM170.666 120.142C171.735 127.525 165.812 134.336 158.346 134.278C151.489 134.278 145.91 128.699 145.91 121.842C145.91 119.973 144.395 118.458 142.526 118.458C140.657 118.458 139.142 119.973 139.142 121.842C138.939 135.112 153.03 144.724 165.283 139.75C167.395 143.275 167.506 146.426 167.623 149.733C167.756 153.478 167.901 157.605 171.283 161.278C166.483 163.361 158.222 164.843 150.175 158.583C150.96 157.974 151.711 157.313 152.424 156.599C155.478 153.309 150.924 148.761 147.638 151.813C140.185 159.552 126.636 157.731 121.42 148.362C120.816 147.315 119.698 146.67 118.489 146.67H118.486C117.276 146.671 116.158 147.318 115.555 148.367C109.586 158.743 98.438 161.123 90.037 158.88C82.678 156.914 74.814 150.575 74.814 138.678C74.649 134.196 68.212 134.193 68.046 138.678C68.046 142.602 68.744 146.309 70.096 149.668C62.615 148.894 53.732 141.722 52.69 134.287C64.962 129.566 71.195 113.89 64.957 101.894C69.151 100.071 74.108 100.071 78.303 101.894C70.457 117.225 82.243 136.284 99.548 136.053C112.609 136.053 123.236 125.427 123.236 112.365C123.26 90.891 96.562 80.618 82.206 96.246C75.668 92.935 67.593 92.935 61.055 96.246C56.779 91.648 50.701 88.748 43.957 88.679C43.391 82.708 45.251 76.576 49.066 72.193C52.711 68.006 57.69 65.919 63.082 66.311C64.499 66.415 65.827 65.624 66.412 64.331C69.494 57.518 74.84 54.592 78.781 53.336C84.417 51.54 90.865 51.95 96.596 54.374C95.493 56.517 94.677 58.835 94.199 61.279C83.215 60.287 72.578 66.529 68.085 76.603C67.318 78.307 68.078 80.311 69.782 81.078C71.486 81.845 73.49 81.085 74.257 79.381C77.926 71.022 87.492 66.302 96.356 68.456C97.332 68.685 98.359 68.467 99.16 67.864C99.961 67.261 100.453 66.334 100.504 65.333C100.698 61.547 101.969 58.063 104.011 55.17C104.105 55.056 104.193 54.936 104.274 54.807C112.506 43.368 130.875 44.724 137.166 57.642C137.984 59.266 139.94 59.954 141.594 59.198C153.776 53.426 168.629 62.46 168.983 75.973C169.049 77.488 170.114 78.774 171.59 79.121C190.625 83.628 191.611 110.526 172.994 116.454C171.428 116.955 170.444 118.51 170.666 120.142ZM99.55 95.447C108.88 95.447 116.47 103.037 116.47 112.367C115.62 134.783 83.478 134.776 82.63 112.367C82.63 103.037 90.221 95.447 99.55 95.447Z" fill="black"/>
<path d="M151.926 77.328C153.248 76.007 153.248 73.864 151.926 72.542C150.605 71.221 148.462 71.221 147.14 72.542C139.872 79.93 126.998 74.591 127.065 64.226C127.065 62.357 125.55 60.842 123.681 60.842C121.812 60.842 120.297 62.357 120.297 64.226C120.191 80.56 140.483 88.965 151.926 77.328Z" fill="#0E0E5E"/>
<path d="M137.023 106.383C136.051 107.355 136.051 108.932 137.023 109.905C137.995 110.877 139.572 110.877 140.545 109.905C145.892 104.469 155.364 108.397 155.314 116.023C155.314 117.398 156.429 118.513 157.804 118.513C159.179 118.513 160.294 117.398 160.294 116.023C160.372 104.006 145.442 97.8219 137.023 106.383Z" fill="#0E0E5E"/>
</svg>
